HIERARCHY
ROOT Hips
{
	OFFSET -3.958830 18.904000 13.208200
	CHANNELS 6 Xposition Yposition Zposition Zrotation Yrotation Xrotation 
	JOINT LHipJoint
	{
		OFFSET 0.000000 0.000000 0.000000
		CHANNELS 3 Zrotation Yrotation Xrotation
		JOINT LeftUpLeg
		{
			OFFSET 1.800000 -1.400000 0.085000
			CHANNELS 3 Zrotation Yrotation Xrotation
			JOINT LeftLeg
			{
				OFFSET 2.215000 -6.000000 0.000000
				CHANNELS 3 Zrotation Yrotation Xrotation
				JOINT LeftFoot
				{
					OFFSET 2.500000 -6.900000 0.000000
					CHANNELS 3 Zrotation Yrotation Xrotation
					JOINT LeftToeBase
					{
						OFFSET 0.200000 -0.500000 1.950000
						CHANNELS 3 Zrotation Yrotation Xrotation
						End Site
						{
							OFFSET 0.000000 0.000000 0.000000
						}
					}
				}
			}
		}
	}
	JOINT RHipJoint
	{
		OFFSET 0.000000 0.000000 0.000000
		CHANNELS 3 Zrotation Yrotation Xrotation
		JOINT RightUpLeg
		{
			OFFSET -1.800000 -1.400000 0.085000
			CHANNELS 3 Zrotation Yrotation Xrotation
			JOINT RightLeg
			{
				OFFSET -2.215000 -6.000000 0.000000
				CHANNELS 3 Zrotation Yrotation Xrotation
				JOINT RightFoot
				{
					OFFSET -2.500000 -6.900000 0.000000
					CHANNELS 3 Zrotation Yrotation Xrotation
					JOINT RightToeBase
					{
						OFFSET -0.200000 -0.500000 1.950000
						CHANNELS 3 Zrotation Yrotation Xrotation
						End Site
						{
							OFFSET 0.000000 0.000000 0.000000
						}
					}
				}
			}
		}
	}
	JOINT LowerBack
	{
		OFFSET 0.000000 0.000000 0.000000
		CHANNELS 3 Zrotation Yrotation Xrotation
		JOINT Spine
		{
			OFFSET -0.087000 1.940000 -0.288900
			CHANNELS 3 Zrotation Yrotation Xrotation
			JOINT Spine1
			{
				OFFSET 0.000000 1.950000 0.060000
				CHANNELS 3 Zrotation Yrotation Xrotation
				JOINT Neck
				{
					OFFSET 0.000000 0.000000 0.000000
					CHANNELS 3 Zrotation Yrotation Xrotation
					JOINT Neck1
					{
						OFFSET 0.000000 1.600000 0.340000
						CHANNELS 3 Zrotation Yrotation Xrotation
						JOINT Head
						{
							OFFSET 0.000000 1.667000 -0.240000
							CHANNELS 3 Zrotation Yrotation Xrotation
							End Site
							{
								OFFSET 0.000000 0.000000 0.000000
							}
						}
					}
				}
				JOINT LeftShoulder
				{
					OFFSET 0.000000 0.000000 0.000000
					CHANNELS 3 Zrotation Yrotation Xrotation
					JOINT LeftArm
					{
						OFFSET 2.700000 1.550000 -0.730000
						CHANNELS 3 Zrotation Yrotation Xrotation
						JOINT LeftForeArm
						{
							OFFSET 5.450000 0.000000 0.000000
							CHANNELS 3 Zrotation Yrotation Xrotation
							JOINT LeftHand
							{
								OFFSET 3.450000 0.000000 0.000000
								CHANNELS 3 Zrotation Yrotation Xrotation
								JOINT LeftHandIndex1
								{
									OFFSET 0.750000 0.000000 0.000000
									CHANNELS 3 Zrotation Yrotation Xrotation
									End Site
									{
										OFFSET 0.000000 0.000000 0.000000
									}
								}
							}
						}
					}
				}
				JOINT RightShoulder
				{
					OFFSET 0.000000 0.000000 0.000000
					CHANNELS 3 Zrotation Yrotation Xrotation
					JOINT RightArm
					{
						OFFSET -2.700000 1.550000 -0.730000
						CHANNELS 3 Zrotation Yrotation Xrotation
						JOINT RightForeArm
						{
							OFFSET -5.450000 0.000000 0.000000
							CHANNELS 3 Zrotation Yrotation Xrotation
							JOINT RightHand
							{
								OFFSET -3.450000 0.000000 0.000000
								CHANNELS 3 Zrotation Yrotation Xrotation
								JOINT RightHandIndex1
								{
									OFFSET -0.750000 0.000000 0.000000
									CHANNELS 3 Zrotation Yrotation Xrotation
									End Site
									{
										OFFSET 0.000000 0.000000 0.000000
									}
								}
							}
						}
					}
				}
			}
		}
	}
}
MOTION
Frames: 7
Frame Time: 0.016667
-0.227340 15.799440 -2.912680 -1.611872 -19.812964 -5.748939 -16.377123 10.675411 7.249686 29.486919 -2.531533 -47.478520 -36.186628 34.341439 50.365730 2.210641 14.051394 -0.266420 0.452070 0.396860 0.519570 17.862264 -7.247808 2.626492 1.720728 10.371098 -27.131440 1.126815 -9.751403 58.928408 -1.450510 -8.202618 1.435124 0.095110 -0.494470 0.054980 -1.522616 -4.751415 -10.138566 -1.343452 3.765763 39.322186 11.393978 7.496498 -6.956181 0.848363 -4.005292 -5.323341 -11.890448 3.251768 44.962237 -3.797490 2.625170 -18.171940 -28.256360 6.107506 0.127304 -50.776421 14.637287 -15.832445 -40.415761 -45.668459 12.519012 -3.187305 3.273809 0.453850 -0.376110 0.431140 -0.036100 27.478726 3.261552 2.424952 35.379937 -10.113928 -20.760794 -15.615101 66.438023 -9.712636 2.140524 -1.482113 0.140470 -0.043220 -0.239580 -0.178100 
-0.233270 15.756630 -2.922530 -1.523358 -20.088785 -6.798239 -16.426999 10.655250 7.328228 30.344372 -2.219309 -47.550000 -36.987406 35.443946 50.991415 2.257256 14.237471 -0.316044 0.458030 0.398110 0.538090 17.839587 -7.132550 2.585817 1.476728 10.482078 -26.754125 1.475402 -10.336036 60.176381 -1.526452 -8.479156 1.347878 0.095870 -0.511300 0.054880 -1.427437 -4.944715 -10.199586 -1.777393 3.916273 40.399892 12.086779 7.651857 -6.300142 0.848591 -4.206146 -5.628919 -12.633098 3.298171 46.488841 -4.884060 2.320460 -18.161670 -27.852960 5.739484 0.635735 -50.005873 15.511863 -15.732208 -44.918204 -47.543161 15.078520 -3.175493 3.296379 0.469100 -0.385610 0.444350 -0.046380 27.085279 4.023705 2.527645 34.012811 -9.908754 -20.932970 -18.231185 68.745149 -11.727741 2.115736 -1.436338 0.140570 -0.034870 -0.235510 -0.186690 
-0.239100 15.670040 -2.947380 -1.525818 -20.608399 -8.543120 -16.505815 10.608696 7.420054 31.766028 -1.750396 -47.723115 -37.277784 36.826013 52.417124 2.303084 14.499157 -0.390821 0.484850 0.427970 0.568820 17.812156 -6.913206 2.553729 1.131756 10.791978 -26.412027 2.285070 -11.608559 62.623950 -1.686326 -9.042520 1.171985 0.118220 -0.533080 0.054090 -1.293427 -5.263996 -10.286855 -2.598953 4.147993 42.491408 13.115151 7.781658 -4.859443 0.843016 -4.287940 -6.009724 -12.902313 3.693826 47.847333 -5.459620 2.362500 -18.905780 -26.571705 5.228790 1.447137 -48.667800 16.346484 -15.187462 -53.016412 -50.258944 19.999781 -3.159417 3.349615 0.493430 -0.400910 0.468330 -0.051080 25.757849 4.949347 2.444466 31.258130 -9.036669 -20.858740 -21.325437 73.364029 -15.008598 2.071295 -1.372161 0.138620 -0.018670 -0.241190 -0.197660 
-0.247360 15.571070 -2.977850 -1.326261 -21.146873 -10.547346 -16.596575 10.561599 7.534195 33.197308 -1.315544 -48.084828 -38.258899 38.382783 53.468603 2.357576 14.730424 -0.451725 0.514990 0.472250 0.592810 17.783493 -6.665319 2.489601 1.007380 11.021163 -25.975731 2.425090 -12.581840 65.320083 -1.843966 -9.611189 1.001106 0.149410 -0.545120 0.061480 -1.138188 -5.666895 -10.356645 -3.731528 4.478657 44.968014 14.146649 7.802653 -2.889183 0.837323 -4.467870 -6.150288 -13.070841 4.341753 47.711795 -6.422880 2.825230 -19.894810 -25.005609 5.004746 2.164100 -46.515846 17.022492 -14.070514 -63.968010 -53.000537 27.243709 -3.167769 3.438613 0.494850 -0.399480 0.483340 -0.051910 24.015785 5.617857 2.122706 27.533432 -7.811057 -20.367870 -23.203040 79.816895 -18.968959 2.029905 -1.340471 0.145080 -0.008390 -0.246190 -0.201900 
-0.242650 15.462150 -3.007790 -1.222392 -21.279468 -12.227821 -16.652163 10.462119 7.644943 34.194398 -1.245003 -48.932393 -38.491113 39.839920 55.263717 2.422599 15.024774 -0.522255 0.533570 0.501060 0.607750 17.782081 -6.458599 2.459076 0.820481 11.236926 -26.156235 2.151441 -13.510545 68.437445 -2.008914 -10.220888 0.822611 0.169960 -0.551140 0.069120 -1.075611 -5.910337 -10.426964 -4.352771 4.586494 47.337729 14.553856 7.549950 -0.533819 0.920681 -4.608416 -6.700741 -12.898226 4.652875 46.542901 -7.116570 2.961190 -21.209050 -21.770190 4.895702 3.044216 -44.880495 17.502077 -12.783324 -77.631619 -54.816353 36.569839 -3.171342 3.530155 0.500620 -0.399290 0.495470 -0.053980 20.338243 5.910388 1.996475 25.558757 -7.027751 -20.193093 -25.612238 88.873258 -26.329559 1.993666 -1.250454 0.147650 0.003880 -0.245170 -0.204490 
-0.244760 15.360640 -3.031780 -1.208630 -21.432638 -13.437096 -16.700132 10.377813 7.710177 34.835040 -1.370768 -49.708370 -37.891009 40.795275 57.273644 2.478383 15.304914 -0.589474 0.537010 0.511830 0.619890 17.779382 -6.280063 2.460663 1.042821 11.432529 -26.599059 1.530392 -14.091648 71.208470 -2.143535 -10.717137 0.682215 0.177800 -0.552580 0.076490 -1.015530 -6.099204 -10.483983 -5.102269 5.059063 48.892095 15.078375 7.398122 2.247637 1.009629 -4.125784 -7.685096 -11.543906 4.336348 45.371423 -7.687900 3.293700 -21.943340 -17.780246 4.979049 3.720993 -43.294281 17.767128 -11.434882 -91.861439 -54.754990 46.082263 -3.160701 3.621265 0.502550 -0.392020 0.503820 -0.059680 15.949288 5.295327 2.859192 24.682171 -6.430553 -17.555797 -174.977469 85.079299 178.892130 2.137083 -1.801394 0.146690 0.010500 -0.242050 -0.209560 
-0.247800 15.270270 -3.060460 -0.998187 -21.518282 -14.765779 -16.740195 10.322499 7.755826 35.209090 -1.673562 -50.272324 -36.669227 41.851665 60.077859 2.566771 15.676885 -0.671611 0.546690 0.529330 0.622730 17.773899 -6.139881 2.442627 1.221709 11.528432 -26.807608 0.723203 -14.472745 73.830702 -2.263641 -11.157755 0.561964 0.189000 -0.546340 0.081320 -0.953097 -6.280112 -10.517315 -5.943228 5.588846 50.465211 15.407549 7.371068 4.450688 1.106848 -4.205043 -8.386380 -11.389605 4.434383 44.136679 -7.539240 3.199450 -22.449400 -13.664425 4.805972 4.814795 -41.775178 18.297754 -10.260319 -104.376455 -53.866339 54.894510 -3.124698 3.717300 0.498730 -0.388480 0.506940 -0.055970 11.475698 5.542685 2.792327 22.856253 -7.553950 -18.703005 158.166734 78.107173 146.231486 2.058472 -1.374419 0.150020 0.018760 -0.242860 -0.203990 
